# Blender v2.80 (sub 75) OBJ File: ''
# www.blender.org
mtllib Ladder.mtl
o Cube
v 2.343260 -1.569411 4.058286
v 2.343260 -2.430694 4.058286
v 2.343260 -2.430694 6.058286
v -2.343260 -1.569411 4.058286
v -2.343260 -2.430694 4.058286
v -2.343260 -2.430694 6.058286
v 2.343260 -1.569411 5.058286
v -2.343260 -1.569411 5.058286
v 2.343260 -2.000052 4.058286
v -2.343260 -2.000052 6.058286
v 2.343260 -2.000052 6.058286
v -2.343260 -2.000052 4.058286
v 2.343260 -2.000052 5.058286
v -2.343260 -2.000052 5.058286
v 2.343260 -0.739411 2.068286
v 2.343260 -1.600694 2.068286
v 2.343260 -1.600694 4.068286
v -2.343260 -0.739411 2.068286
v -2.343260 -1.600694 2.068286
v -2.343260 -1.600694 4.068286
v 2.343260 -0.739411 3.068286
v -2.343260 -0.739411 3.068286
v 2.343260 -1.170052 2.068286
v -2.343260 -1.170052 4.068286
v 2.343260 -1.170052 4.068286
v -2.343260 -1.170052 2.068286
v 2.343260 -1.170052 3.068286
v -2.343260 -1.170052 3.068286
v 2.343260 0.090589 0.078286
v 2.343260 -0.770694 0.078286
v 2.343260 -0.770694 2.078286
v -2.343260 0.090589 0.078286
v -2.343260 -0.770694 0.078286
v -2.343260 -0.770694 2.078286
v 2.343260 0.090589 1.078286
v -2.343260 0.090589 1.078286
v 2.343260 -0.340052 0.078286
v -2.343260 -0.340052 2.078286
v 2.343260 -0.340052 2.078286
v -2.343260 -0.340052 0.078286
v 2.343260 -0.340052 1.078286
v -2.343260 -0.340052 1.078286
v 2.343260 0.920589 -1.911715
v 2.343260 0.059306 -1.911715
v 2.343260 0.059306 0.088285
v -2.343260 0.920589 -1.911715
v -2.343260 0.059306 -1.911715
v -2.343260 0.059306 0.088285
v 2.343260 0.920589 -0.911715
v -2.343260 0.920589 -0.911715
v 2.343260 0.489948 -1.911715
v -2.343260 0.489948 0.088285
v 2.343260 0.489948 0.088285
v -2.343260 0.489948 -1.911715
v 2.343260 0.489948 -0.911715
v -2.343260 0.489948 -0.911715
v 2.343260 1.750589 -3.901714
v 2.343260 0.889306 -3.901714
v 2.343260 0.889306 -1.901714
v -2.343260 1.750589 -3.901714
v -2.343260 0.889306 -3.901714
v -2.343260 0.889306 -1.901714
v 2.343260 1.750589 -2.901714
v -2.343260 1.750589 -2.901714
v 2.343260 1.319948 -3.901714
v -2.343260 1.319948 -1.901714
v 2.343260 1.319948 -1.901714
v -2.343260 1.319948 -3.901714
v 2.343260 1.319948 -2.901714
v -2.343260 1.319948 -2.901714
v 2.343260 2.580589 -5.891714
v 2.343260 1.719307 -5.891714
v 2.343260 1.719307 -3.891714
v -2.343260 2.580589 -5.891714
v -2.343260 1.719307 -5.891714
v -2.343260 1.719307 -3.891714
v 2.343260 2.580589 -4.891714
v -2.343260 2.580589 -4.891714
v 2.343260 2.149948 -5.891714
v -2.343260 2.149948 -3.891714
v 2.343260 2.149948 -3.891714
v -2.343260 2.149948 -5.891714
v 2.343260 2.149948 -4.891714
v -2.343260 2.149948 -4.891714
vt 0.500000 0.625000
vt 0.625000 0.625000
vt 0.625000 0.750000
vt 0.500000 0.750000
vt 0.375000 0.750000
vt 0.375000 0.500000
vt 0.500000 0.500000
vt 0.375000 0.625000
vt 0.250000 0.625000
vt 0.750000 0.500000
vt 0.875000 0.500000
vt 0.875000 0.750000
vt 0.750000 0.750000
vt 0.250000 0.500000
vt 0.375000 0.500000
vt 0.500000 0.250000
vt 0.375000 0.000000
vt 0.625000 0.000000
vt 0.625000 0.125000
vt 0.375000 0.125000
vt 0.625000 0.750000
vt 0.625000 1.000000
vt 0.375000 1.000000
vt 0.625000 0.500000
vt 0.375000 0.250000
vt 0.250000 0.750000
vt 0.125000 0.750000
vt 0.125000 0.500000
vt 0.500000 0.625000
vt 0.625000 0.625000
vt 0.625000 0.750000
vt 0.500000 0.750000
vt 0.375000 0.750000
vt 0.375000 0.500000
vt 0.500000 0.500000
vt 0.375000 0.625000
vt 0.250000 0.625000
vt 0.750000 0.500000
vt 0.875000 0.500000
vt 0.875000 0.750000
vt 0.750000 0.750000
vt 0.250000 0.500000
vt 0.375000 0.500000
vt 0.500000 0.250000
vt 0.375000 0.000000
vt 0.625000 0.000000
vt 0.625000 0.125000
vt 0.375000 0.125000
vt 0.625000 0.750000
vt 0.625000 1.000000
vt 0.375000 1.000000
vt 0.625000 0.500000
vt 0.375000 0.250000
vt 0.250000 0.750000
vt 0.125000 0.750000
vt 0.125000 0.500000
vt 0.500000 0.625000
vt 0.625000 0.625000
vt 0.625000 0.750000
vt 0.500000 0.750000
vt 0.375000 0.750000
vt 0.375000 0.500000
vt 0.500000 0.500000
vt 0.375000 0.625000
vt 0.250000 0.625000
vt 0.750000 0.500000
vt 0.875000 0.500000
vt 0.875000 0.750000
vt 0.750000 0.750000
vt 0.250000 0.500000
vt 0.375000 0.500000
vt 0.500000 0.250000
vt 0.375000 0.000000
vt 0.625000 0.000000
vt 0.625000 0.125000
vt 0.375000 0.125000
vt 0.625000 0.750000
vt 0.625000 1.000000
vt 0.375000 1.000000
vt 0.625000 0.500000
vt 0.375000 0.250000
vt 0.250000 0.750000
vt 0.125000 0.750000
vt 0.125000 0.500000
vt 0.500000 0.625000
vt 0.625000 0.625000
vt 0.625000 0.750000
vt 0.500000 0.750000
vt 0.375000 0.750000
vt 0.375000 0.500000
vt 0.500000 0.500000
vt 0.375000 0.625000
vt 0.250000 0.625000
vt 0.750000 0.500000
vt 0.875000 0.500000
vt 0.875000 0.750000
vt 0.750000 0.750000
vt 0.250000 0.500000
vt 0.375000 0.500000
vt 0.500000 0.250000
vt 0.375000 0.000000
vt 0.625000 0.000000
vt 0.625000 0.125000
vt 0.375000 0.125000
vt 0.625000 0.750000
vt 0.625000 1.000000
vt 0.375000 1.000000
vt 0.625000 0.500000
vt 0.375000 0.250000
vt 0.250000 0.750000
vt 0.125000 0.750000
vt 0.125000 0.500000
vt 0.500000 0.625000
vt 0.625000 0.625000
vt 0.625000 0.750000
vt 0.500000 0.750000
vt 0.375000 0.750000
vt 0.375000 0.500000
vt 0.500000 0.500000
vt 0.375000 0.625000
vt 0.250000 0.625000
vt 0.750000 0.500000
vt 0.875000 0.500000
vt 0.875000 0.750000
vt 0.750000 0.750000
vt 0.250000 0.500000
vt 0.375000 0.500000
vt 0.500000 0.250000
vt 0.375000 0.000000
vt 0.625000 0.000000
vt 0.625000 0.125000
vt 0.375000 0.125000
vt 0.625000 0.750000
vt 0.625000 1.000000
vt 0.375000 1.000000
vt 0.625000 0.500000
vt 0.375000 0.250000
vt 0.250000 0.750000
vt 0.125000 0.750000
vt 0.125000 0.500000
vt 0.500000 0.625000
vt 0.625000 0.625000
vt 0.625000 0.750000
vt 0.500000 0.750000
vt 0.375000 0.750000
vt 0.375000 0.500000
vt 0.500000 0.500000
vt 0.375000 0.625000
vt 0.250000 0.625000
vt 0.750000 0.500000
vt 0.875000 0.500000
vt 0.875000 0.750000
vt 0.750000 0.750000
vt 0.250000 0.500000
vt 0.375000 0.500000
vt 0.500000 0.250000
vt 0.375000 0.000000
vt 0.625000 0.000000
vt 0.625000 0.125000
vt 0.375000 0.125000
vt 0.625000 0.750000
vt 0.625000 1.000000
vt 0.375000 1.000000
vt 0.625000 0.500000
vt 0.375000 0.250000
vt 0.250000 0.750000
vt 0.125000 0.750000
vt 0.125000 0.500000
vn -1.0000 0.0000 0.0000
vn 0.0000 0.0000 1.0000
vn 0.0000 0.0000 -1.0000
vn 1.0000 0.0000 0.0000
vn 0.0000 1.0000 0.0000
vn 0.0000 -1.0000 0.0000
usemtl Material
s off
f 14/1/1 8/2/1 4/3/1 12/4/1
f 14/1/1 12/4/1 5/5/1 6/6/1 10/7/1
f 7/8/2 8/2/2 14/1/2 13/9/2
f 12/10/3 4/11/3 1/12/3 9/13/3
f 9/14/4 1/15/4 7/8/4 13/9/4
f 14/1/5 10/7/5 11/16/5 13/9/5
f 1/17/5 4/18/5 8/19/5 7/20/5
f 5/5/6 2/21/6 3/22/6 6/23/6
f 5/24/3 12/10/3 9/13/3 2/21/3
f 3/25/2 11/16/2 10/7/2 6/6/2
f 13/9/4 11/26/4 3/27/4 2/28/4 9/14/4
f 28/29/1 22/30/1 18/31/1 26/32/1
f 28/29/1 26/32/1 19/33/1 20/34/1 24/35/1
f 21/36/2 22/30/2 28/29/2 27/37/2
f 26/38/3 18/39/3 15/40/3 23/41/3
f 23/42/4 15/43/4 21/36/4 27/37/4
f 28/29/5 24/35/5 25/44/5 27/37/5
f 15/45/5 18/46/5 22/47/5 21/48/5
f 19/33/6 16/49/6 17/50/6 20/51/6
f 19/52/3 26/38/3 23/41/3 16/49/3
f 17/53/2 25/44/2 24/35/2 20/34/2
f 27/37/4 25/54/4 17/55/4 16/56/4 23/42/4
f 42/57/1 36/58/1 32/59/1 40/60/1
f 42/57/1 40/60/1 33/61/1 34/62/1 38/63/1
f 35/64/2 36/58/2 42/57/2 41/65/2
f 40/66/3 32/67/3 29/68/3 37/69/3
f 37/70/4 29/71/4 35/64/4 41/65/4
f 42/57/5 38/63/5 39/72/5 41/65/5
f 29/73/5 32/74/5 36/75/5 35/76/5
f 33/61/6 30/77/6 31/78/6 34/79/6
f 33/80/3 40/66/3 37/69/3 30/77/3
f 31/81/2 39/72/2 38/63/2 34/62/2
f 41/65/4 39/82/4 31/83/4 30/84/4 37/70/4
f 56/85/1 50/86/1 46/87/1 54/88/1
f 56/85/1 54/88/1 47/89/1 48/90/1 52/91/1
f 49/92/2 50/86/2 56/85/2 55/93/2
f 54/94/3 46/95/3 43/96/3 51/97/3
f 51/98/4 43/99/4 49/92/4 55/93/4
f 56/85/5 52/91/5 53/100/5 55/93/5
f 43/101/5 46/102/5 50/103/5 49/104/5
f 47/89/6 44/105/6 45/106/6 48/107/6
f 47/108/3 54/94/3 51/97/3 44/105/3
f 45/109/2 53/100/2 52/91/2 48/90/2
f 55/93/4 53/110/4 45/111/4 44/112/4 51/98/4
f 70/113/1 64/114/1 60/115/1 68/116/1
f 70/113/1 68/116/1 61/117/1 62/118/1 66/119/1
f 63/120/2 64/114/2 70/113/2 69/121/2
f 68/122/3 60/123/3 57/124/3 65/125/3
f 65/126/4 57/127/4 63/120/4 69/121/4
f 70/113/5 66/119/5 67/128/5 69/121/5
f 57/129/5 60/130/5 64/131/5 63/132/5
f 61/117/6 58/133/6 59/134/6 62/135/6
f 61/136/3 68/122/3 65/125/3 58/133/3
f 59/137/2 67/128/2 66/119/2 62/118/2
f 69/121/4 67/138/4 59/139/4 58/140/4 65/126/4
f 84/141/1 78/142/1 74/143/1 82/144/1
f 84/141/1 82/144/1 75/145/1 76/146/1 80/147/1
f 77/148/2 78/142/2 84/141/2 83/149/2
f 82/150/3 74/151/3 71/152/3 79/153/3
f 79/154/4 71/155/4 77/148/4 83/149/4
f 84/141/5 80/147/5 81/156/5 83/149/5
f 71/157/5 74/158/5 78/159/5 77/160/5
f 75/145/6 72/161/6 73/162/6 76/163/6
f 75/164/3 82/150/3 79/153/3 72/161/3
f 73/165/2 81/156/2 80/147/2 76/146/2
f 83/149/4 81/166/4 73/167/4 72/168/4 79/154/4
