# Blender v2.90.1 OBJ File: 'Lemari rak.blend'
# www.blender.org
mtllib Lemari rak.mtl
o PM3D_Cube3D3
v -1.844933 0.273956 0.867312
v 1.879267 0.273956 0.867312
v -1.844933 0.273956 -0.689520
v 1.879267 0.273956 -0.689519
v -1.844933 0.144485 0.867312
v 1.879267 0.144485 0.867312
v -1.844933 0.144485 -0.689520
v 1.879267 0.144485 -0.689519
v -1.844934 0.144485 -0.552564
v -1.844934 0.273956 -0.552564
v 1.879267 0.273956 -0.552564
v 1.879267 0.144485 -0.552564
v 1.751347 0.273956 0.867312
v 1.751347 0.273956 -0.552564
v 1.751347 0.144485 -0.689519
v 1.751347 0.273956 -0.689519
v 1.751347 0.144485 -0.552564
v 1.751347 0.144485 0.867312
v -1.722387 0.273956 0.867313
v -1.722387 0.273956 -0.552565
v -1.722387 0.144485 -0.689519
v -1.722387 0.144485 -0.552565
v -1.722387 0.144485 0.867313
v -1.722387 0.273956 -0.689519
v -1.844934 4.502760 -0.552564
v -1.722387 4.502760 -0.552565
v -1.722387 4.502760 0.867313
v -1.844933 4.502760 0.867312
v -1.844933 4.502760 -0.689520
v -1.722387 4.502760 -0.689519
v 1.751347 4.502760 -0.552564
v 1.879267 4.502760 -0.552564
v 1.879267 4.502760 0.867312
v 1.751347 4.502760 0.867312
v 1.751347 4.502760 -0.689519
v 1.879267 4.502760 -0.689519
v -1.844933 4.366466 0.867312
v -1.844934 4.366466 -0.552564
v -1.722387 4.366466 -0.552565
v -1.722387 4.366466 0.867313
v -1.844933 4.366466 -0.689520
v -1.722387 4.366466 -0.689519
v 1.751347 4.366466 0.867312
v 1.751347 4.366466 -0.552564
v 1.879267 4.366466 -0.552564
v 1.879267 4.366466 0.867312
v 1.751347 4.366466 -0.689519
v 1.879267 4.366466 -0.689519
v -1.844933 1.399418 0.867312
v -1.844934 1.399418 -0.552564
v -1.722387 1.399418 -0.552565
v -1.722387 1.399418 0.867313
v -1.844933 1.399418 -0.689520
v -1.722387 1.399418 -0.689519
v 1.751347 1.399418 0.867312
v 1.751347 1.399418 -0.552564
v 1.879267 1.399418 -0.552564
v 1.879267 1.399418 0.867312
v 1.751347 1.399418 -0.689519
v 1.879267 1.399418 -0.689519
v -1.844933 1.526203 0.867312
v -1.844934 1.526203 -0.552564
v -1.722387 1.526203 -0.552565
v -1.722387 1.526203 0.867313
v -1.844933 1.526203 -0.689520
v -1.722387 1.526203 -0.689519
v 1.751347 1.526203 0.867312
v 1.751347 1.526203 -0.552564
v 1.879267 1.526203 -0.552564
v 1.879267 1.526203 0.867312
v 1.751347 1.526203 -0.689519
v 1.879267 1.526203 -0.689519
v -1.844933 2.977462 0.867312
v -1.844934 2.977462 -0.552564
v -1.722387 2.977462 -0.552565
v -1.722387 2.977462 0.867313
v -1.844933 2.977462 -0.689520
v -1.722387 2.977462 -0.689519
v 1.751347 2.977462 0.867312
v 1.751347 2.977462 -0.552564
v 1.879267 2.977462 -0.552564
v 1.879267 2.977462 0.867312
v 1.751347 2.977462 -0.689519
v 1.879267 2.977462 -0.689519
v -1.844933 2.842743 0.867312
v -1.844934 2.842743 -0.552564
v -1.722387 2.842743 -0.552565
v -1.722387 2.842743 0.867313
v -1.844933 2.842743 -0.689520
v -1.722387 2.842743 -0.689519
v 1.751347 2.842743 0.867312
v 1.751347 2.842743 -0.552564
v 1.879267 2.842743 -0.552564
v 1.879267 2.842743 0.867312
v 1.751347 2.842743 -0.689519
v 1.879267 2.842743 -0.689519
v -1.722386 4.502760 1.021321
v 1.751347 4.502760 1.021320
v 1.751347 4.366466 1.021320
v -1.722386 4.366466 1.021321
v -1.844932 4.502760 0.898109
v -1.844932 4.366466 0.898109
v 1.879267 4.502760 0.898112
v 1.879267 4.366466 0.898112
v -1.722387 0.273956 0.991188
v 1.751347 0.273956 0.991187
v 1.751347 0.144485 0.991187
v -1.722387 0.144485 0.991188
v -1.844932 0.273956 0.879687
v -1.844932 0.144485 0.879687
v 1.879267 0.273956 0.879687
v 1.879267 0.144485 0.879687
vt 0.367270 0.512088
vt 0.367270 0.500559
vt 0.356371 0.500560
vt 0.356371 0.512088
vt 0.367270 0.515485
vt 0.367270 0.635006
vt 0.356371 0.635006
vt 0.356371 0.515485
vt 0.000402 0.367270
vt 0.011170 0.367270
vt 0.011170 0.356371
vt 0.000402 0.356371
vt 0.000402 0.788817
vt 0.010718 0.788817
vt 0.010718 0.777288
vt 0.000402 0.777288
vt 0.367270 0.381038
vt 0.356371 0.381038
vt 0.367270 0.646535
vt 0.356371 0.646535
vt 0.010718 0.657767
vt 0.000402 0.657767
vt 0.303579 0.367270
vt 0.303579 0.356371
vt 0.303127 0.788817
vt 0.313895 0.788817
vt 0.313895 0.777288
vt 0.303127 0.777288
vt 0.313895 0.657767
vt 0.303127 0.657767
vt 0.639425 0.303579
vt 0.639425 0.011170
vt 0.758946 0.011170
vt 0.758946 0.303579
vt 0.313895 0.367270
vt 0.313895 0.356371
vt 0.499124 0.368074
vt 0.499124 0.378390
vt 0.379603 0.378390
vt 0.379603 0.368074
vt 0.261633 0.381038
vt 0.261633 0.500560
vt 0.119924 0.995987
vt 0.000402 0.995987
vt 0.000402 0.901249
vt 0.119924 0.901249
vt 0.628192 0.344898
vt 0.617877 0.344898
vt 0.617877 0.250160
vt 0.628192 0.250160
vt 0.368074 0.378390
vt 0.368074 0.368074
vt 0.261633 0.512088
vt 0.313895 0.261633
vt 0.303579 0.261633
vt 0.499124 0.670799
vt 0.499124 0.681567
vt 0.379603 0.681567
vt 0.379603 0.670799
vt 0.120728 0.995987
vt 0.240249 0.995987
vt 0.240249 0.901249
vt 0.120728 0.901249
vt 0.261633 0.635006
vt 0.261633 0.515485
vt 0.325468 0.344898
vt 0.314700 0.344898
vt 0.314700 0.250160
vt 0.325468 0.250160
vt 0.368074 0.681567
vt 0.368074 0.670799
vt 0.011170 0.261633
vt 0.000402 0.261633
vt 0.261633 0.646535
vt 0.462812 0.682372
vt 0.462812 0.974781
vt 0.368074 0.974781
vt 0.368074 0.682372
vt 0.011875 0.500559
vt 0.011875 0.381038
vt 0.000402 0.381038
vt 0.000402 0.500559
vt 0.011875 0.512088
vt 0.000402 0.512088
vt 0.303579 0.011875
vt 0.313895 0.011875
vt 0.313895 0.000402
vt 0.303579 0.000402
vt 0.011875 0.515485
vt 0.011875 0.635006
vt 0.000402 0.635006
vt 0.000402 0.515485
vt 0.000402 0.011875
vt 0.011170 0.011875
vt 0.011170 0.000402
vt 0.000402 0.000402
vt 0.011875 0.646535
vt 0.000402 0.646535
vt 0.645378 0.671251
vt 0.645378 0.378842
vt 0.525857 0.378842
vt 0.525857 0.671251
vt 0.250960 0.381038
vt 0.250960 0.500560
vt 0.617877 0.239488
vt 0.628192 0.239488
vt 0.250960 0.512088
vt 0.313895 0.250960
vt 0.303579 0.250960
vt 0.250960 0.635006
vt 0.250960 0.515485
vt 0.314700 0.239488
vt 0.325468 0.239488
vt 0.011170 0.250960
vt 0.000402 0.250960
vt 0.250960 0.646535
vt 0.140138 0.381038
vt 0.140138 0.500560
vt 0.999598 0.111225
vt 0.880076 0.111225
vt 0.880076 0.000402
vt 0.999598 0.000402
vt 0.617877 0.128665
vt 0.628192 0.128665
vt 0.140138 0.512088
vt 0.313895 0.140138
vt 0.303579 0.140138
vt 0.880076 0.222852
vt 0.999597 0.222852
vt 0.999597 0.112030
vt 0.880076 0.112030
vt 0.140138 0.635006
vt 0.140138 0.515485
vt 0.314700 0.128665
vt 0.325468 0.128665
vt 0.011170 0.140138
vt 0.000402 0.140138
vt 0.140138 0.646535
vt 0.292811 0.900444
vt 0.000402 0.900444
vt 0.000402 0.789622
vt 0.292811 0.789622
vt 0.128798 0.500560
vt 0.128798 0.381038
vt 0.583138 0.799294
vt 0.463617 0.799294
vt 0.463617 0.682372
vt 0.583138 0.682372
vt 0.628192 0.117325
vt 0.617877 0.117325
vt 0.617877 0.000402
vt 0.628192 0.000402
vt 0.128798 0.512088
vt 0.303579 0.128798
vt 0.313895 0.128798
vt 0.463617 0.917021
vt 0.583138 0.917021
vt 0.583138 0.800099
vt 0.463617 0.800099
vt 0.128798 0.515485
vt 0.128798 0.635006
vt 0.325468 0.117325
vt 0.314700 0.117325
vt 0.314700 0.000402
vt 0.325468 0.000402
vt 0.000402 0.128798
vt 0.011170 0.128798
vt 0.128798 0.646535
vt 0.883431 0.661288
vt 0.883431 0.953697
vt 0.766509 0.953697
vt 0.766509 0.661288
vt 0.646183 0.660483
vt 0.646183 0.368074
vt 0.765704 0.368074
vt 0.765704 0.660483
vt 0.766509 0.368074
vt 0.766509 0.660483
vt 0.886030 0.660483
vt 0.886030 0.368074
vt 0.646183 0.953697
vt 0.646183 0.661288
vt 0.765704 0.661288
vt 0.765704 0.953697
vt 0.759750 0.000402
vt 0.759751 0.292811
vt 0.879272 0.292811
vt 0.879272 0.000402
vt 0.617877 0.357176
vt 0.325468 0.357176
vt 0.325468 0.345703
vt 0.617877 0.345703
vt 0.512088 0.378390
vt 0.512088 0.670799
vt 0.512893 0.378842
vt 0.512893 0.671251
vt 0.011875 0.378446
vt 0.011875 0.368074
vt 0.000402 0.368074
vt 0.000402 0.378446
vt 0.501716 0.368074
vt 0.525857 0.681567
vt 0.523264 0.681567
vt 0.314700 0.357176
vt 0.314700 0.345703
vt 0.501717 0.681567
vt 0.000402 0.512893
vt 0.011875 0.512893
vt 0.525857 0.368074
vt 0.523264 0.368074
vt 0.921858 0.357176
vt 0.629449 0.357176
vt 0.629449 0.346277
vt 0.921858 0.346277
vt 0.628997 0.303579
vt 0.628997 0.011170
vt 0.303127 0.647340
vt 0.010718 0.647340
vt 0.932174 0.357176
vt 0.932174 0.346277
vt 0.367270 0.379997
vt 0.356371 0.379997
vt 0.639425 0.313895
vt 0.638383 0.313895
vt 0.000403 0.656726
vt 0.618681 0.357176
vt 0.618681 0.346277
vt 0.639425 0.000402
vt 0.638383 0.000402
vt 0.356371 0.514444
vt 0.367270 0.514444
vt 0.313895 0.656726
vn -1.0000 0.0000 -0.0000
vn 1.0000 0.0000 -0.0000
vn -0.0000 0.0000 -1.0000
vn 0.0000 -1.0000 0.0000
vn 0.0000 1.0000 0.0000
vn -0.0000 0.0000 1.0000
vn -0.7090 0.0000 0.7052
vn 0.6937 0.0000 0.7202
vn -0.6730 0.0000 0.7397
vn -1.0000 0.0000 0.0001
vn 0.6571 0.0000 0.7538
usemtl PM3D_Cube3D3
s off
f 7/1/1 9/2/1 10/3/1 3/4/1
f 6/5/2 12/6/2 11/7/2 2/8/2
f 8/9/3 15/10/3 16/11/3 4/12/3
f 7/13/4 21/14/4 22/15/4 9/16/4
f 9/2/1 5/17/1 1/18/1 10/3/1
f 12/6/2 8/19/2 4/20/2 11/7/2
f 9/16/4 22/15/4 23/21/4 5/22/4
f 15/10/3 21/23/3 24/24/3 16/11/3
f 15/25/4 8/26/4 12/27/4 17/28/4
f 17/28/4 12/27/4 6/29/4 18/30/4
f 19/31/5 13/32/5 14/33/5 20/34/5
f 21/14/4 15/25/4 17/28/4 22/15/4
f 22/15/4 17/28/4 18/30/4 23/21/4
f 21/23/3 7/35/3 3/36/3 24/24/3
f 28/37/5 27/38/5 26/39/5 25/40/5
f 10/3/1 1/18/1 49/41/1 50/42/1
f 19/43/2 20/44/2 51/45/2 52/46/2
f 1/47/6 19/48/6 52/49/6 49/50/6
f 25/40/5 26/39/5 30/51/5 29/52/5
f 3/4/1 10/3/1 50/42/1 53/53/1
f 24/24/3 3/36/3 53/54/3 54/55/3
f 34/56/5 33/57/5 32/58/5 31/59/5
f 14/60/1 13/61/1 55/62/1 56/63/1
f 2/8/2 11/7/2 57/64/2 58/65/2
f 13/66/6 2/67/6 58/68/6 55/69/6
f 31/59/5 32/58/5 36/70/5 35/71/5
f 4/12/3 16/11/3 59/72/3 60/73/3
f 11/7/2 4/20/2 60/74/2 57/64/2
f 26/39/5 31/59/5 35/71/5 30/51/5
f 16/11/3 24/24/3 54/55/3 59/72/3
f 20/75/6 14/76/6 56/77/6 51/78/6
f 38/79/1 37/80/1 28/81/1 25/82/1
f 41/83/1 38/79/1 25/82/1 29/84/1
f 42/85/3 41/86/3 29/87/3 30/88/3
f 46/89/2 45/90/2 32/91/2 33/92/2
f 48/93/3 47/94/3 35/95/3 36/96/3
f 45/90/2 48/97/2 36/98/2 32/91/2
f 47/94/3 42/85/3 30/88/3 35/95/3
f 31/59/5 26/39/5 27/38/5 34/56/5
f 39/99/4 44/100/4 43/101/4 40/102/4
f 50/42/1 49/41/1 61/103/1 62/104/1
f 49/50/6 52/49/6 64/105/6 61/106/6
f 53/53/1 50/42/1 62/104/1 65/107/1
f 54/55/3 53/54/3 65/108/3 66/109/3
f 58/65/2 57/64/2 69/110/2 70/111/2
f 55/69/6 58/68/6 70/112/6 67/113/6
f 60/73/3 59/72/3 71/114/3 72/115/3
f 57/64/2 60/74/2 72/116/2 69/110/2
f 59/72/3 54/55/3 66/109/3 71/114/3
f 62/104/1 61/103/1 85/117/1 86/118/1
f 64/119/2 63/120/2 87/121/2 88/122/2
f 61/106/6 64/105/6 88/123/6 85/124/6
f 65/107/1 62/104/1 86/118/1 89/125/1
f 66/109/3 65/108/3 89/126/3 90/127/3
f 68/128/1 67/129/1 91/130/1 92/131/1
f 70/111/2 69/110/2 93/132/2 94/133/2
f 67/113/6 70/112/6 94/134/6 91/135/6
f 72/115/3 71/114/3 95/136/3 96/137/3
f 69/110/2 72/116/2 96/138/2 93/132/2
f 71/114/3 66/109/3 90/127/3 95/136/3
f 63/139/6 68/140/6 92/141/6 87/142/6
f 74/143/1 73/144/1 37/80/1 38/79/1
f 76/145/2 75/146/2 39/147/2 40/148/2
f 73/149/6 76/150/6 40/151/6 37/152/6
f 77/153/1 74/143/1 38/79/1 41/83/1
f 78/154/3 77/155/3 41/86/3 42/85/3
f 80/156/1 79/157/1 43/158/1 44/159/1
f 82/160/2 81/161/2 45/90/2 46/89/2
f 79/162/6 82/163/6 46/164/6 43/165/6
f 84/166/3 83/167/3 47/94/3 48/93/3
f 81/161/2 84/168/2 48/97/2 45/90/2
f 83/167/3 78/154/3 42/85/3 47/94/3
f 75/169/6 80/170/6 44/171/6 39/172/6
f 86/118/1 85/117/1 73/144/1 74/143/1
f 85/124/6 88/123/6 76/150/6 73/149/6
f 89/125/1 86/118/1 74/143/1 77/153/1
f 90/127/3 89/126/3 77/155/3 78/154/3
f 94/133/2 93/132/2 81/161/2 82/160/2
f 91/135/6 94/134/6 82/163/6 79/162/6
f 96/137/3 95/136/3 83/167/3 84/166/3
f 93/132/2 96/138/2 84/168/2 81/161/2
f 95/136/3 90/127/3 78/154/3 83/167/3
f 52/49/6 55/69/6 67/113/6 64/105/6
f 68/173/5 63/174/5 64/175/5 67/176/5
f 51/177/4 56/178/4 55/179/4 52/180/4
f 88/123/6 91/135/6 79/162/6 76/150/6
f 80/181/5 75/182/5 76/183/5 79/184/5
f 87/185/4 92/186/4 91/187/4 88/188/4
f 100/189/6 99/190/6 98/191/6 97/192/6
f 34/56/5 27/38/5 97/193/5 98/194/5
f 40/102/4 43/101/4 99/195/4 100/196/4
f 102/197/7 100/198/7 97/199/7 101/200/7
f 28/81/1 37/80/1 102/197/1 101/200/1
f 27/38/5 28/37/5 101/201/5 97/193/5
f 37/202/4 40/102/4 100/196/4 102/203/4
f 99/190/8 104/204/8 103/205/8 98/191/8
f 33/57/5 34/56/5 98/194/5 103/206/5
f 46/89/2 33/92/2 103/207/2 104/208/2
f 43/101/4 46/209/4 104/210/4 99/195/4
f 108/211/6 107/212/6 106/213/6 105/214/6
f 13/32/5 19/31/5 105/215/5 106/216/5
f 23/21/4 18/30/4 107/217/4 108/218/4
f 110/219/9 108/211/9 105/214/9 109/220/9
f 1/18/10 5/17/10 110/221/10 109/222/10
f 19/31/5 1/223/5 109/224/5 105/215/5
f 5/22/4 23/21/4 108/218/4 110/225/4
f 107/212/11 112/226/11 111/227/11 106/213/11
f 2/228/5 13/32/5 106/216/5 111/229/5
f 6/5/2 2/8/2 111/230/2 112/231/2
f 18/30/4 6/29/4 112/232/4 107/217/4
