# Blender v2.90.1 OBJ File: 'rak gantung.blend'
# www.blender.org
mtllib rak gantung.mtl
o Rak_dinding_PolyMesh3D2_4
v -2.032553 0.386225 0.502591
v 1.932597 0.386225 0.502591
v -2.032553 0.386225 -0.231160
v 1.932597 0.386225 -0.231160
v -2.032553 0.300387 0.502591
v 1.932597 0.300387 0.502591
v -2.032553 0.300387 -0.231160
v 1.932597 0.300387 -0.231160
v -1.963660 0.300387 0.502591
v -1.963660 0.386225 0.502591
v -1.963660 0.386225 -0.231160
v -1.963660 0.300387 -0.231160
v 1.863200 0.300387 -0.231160
v 1.863200 0.386225 -0.231160
v 1.863200 0.300387 0.502591
v 1.863200 0.386225 0.502591
v -0.096456 0.300387 0.502591
v -0.096456 0.386225 0.502591
v -0.096456 0.386225 -0.231160
v -0.096456 0.300387 -0.231160
v -0.029920 0.300387 -0.231160
v -0.029920 0.386225 -0.231160
v -0.029920 0.300387 0.502591
v -0.029920 0.386225 0.502591
v 1.932597 0.300387 0.435855
v 1.932597 0.386225 0.435855
v -2.032553 0.300387 0.435855
v -2.032553 0.386225 0.435855
v -1.963660 0.386225 0.435855
v -1.963660 0.300387 0.435855
v -0.096456 0.386225 0.435855
v -0.096456 0.300387 0.435855
v 1.863200 0.386225 0.435855
v 1.863200 0.300387 0.435855
v -0.029920 0.386225 0.435855
v -0.029920 0.300387 0.435855
v -2.032553 0.300387 -0.168867
v -2.032553 0.386225 -0.168867
v -1.963660 0.300387 -0.168867
v -0.096456 0.300387 -0.168867
v 1.932597 0.300387 -0.168867
v 1.863200 0.300387 -0.168867
v -0.029920 0.300387 -0.168867
v 1.932597 0.386225 -0.168867
v -1.963660 0.386225 -0.168867
v -0.096456 0.386225 -0.168867
v 1.863200 0.386225 -0.168867
v -0.029920 0.386225 -0.168867
v -2.032553 -0.290025 -0.168867
v -1.963660 -0.290025 -0.168867
v -1.963660 -0.290025 -0.231160
v -2.032553 -0.290025 -0.231160
v -0.096456 -0.290025 -0.168867
v -0.096456 -0.290025 -0.231160
v 1.863200 -0.290025 -0.168867
v 1.932597 -0.290025 -0.168867
v 1.932597 -0.290025 -0.231160
v 1.863200 -0.290025 -0.231160
v -0.029920 -0.290025 -0.168867
v -0.029920 -0.290025 -0.231160
v -2.032553 -0.206245 -0.231160
v -2.032553 -0.206245 -0.168867
v -1.963660 -0.206245 -0.168867
v -1.963660 -0.206245 -0.231160
v -0.096456 -0.206245 -0.168867
v -0.096456 -0.206245 -0.231160
v 1.863200 -0.206245 -0.168867
v 1.932597 -0.206245 -0.168867
v 1.932597 -0.206245 -0.231160
v 1.863200 -0.206245 -0.231160
v -0.029920 -0.206245 -0.168867
v -0.029920 -0.206245 -0.231160
v -2.032553 0.202671 0.502591
v -1.963660 0.202671 0.502591
v -1.963660 0.202671 0.435855
v -2.032553 0.202671 0.435855
v 1.863200 0.202671 0.502591
v 1.932597 0.202671 0.502591
v 1.932597 0.202671 0.435855
v 1.863200 0.202671 0.435855
v -0.096456 0.202671 0.502591
v -0.029920 0.202671 0.502591
v -0.029920 0.202671 0.435855
v -0.096456 0.202671 0.435855
v -1.963660 0.118890 0.435855
v -2.032553 0.118890 0.435855
v 1.932597 0.118890 0.435855
v 1.863200 0.118890 0.435855
v -0.029920 0.118890 0.435855
v -0.096456 0.118890 0.435855
v -1.963660 0.118890 0.442525
v -2.032553 0.118890 0.442525
v 1.932597 0.118890 0.442525
v 1.863200 0.118890 0.442525
v -0.029920 0.118890 0.442525
v -0.096456 0.118890 0.442525
vt 0.978677 0.350758
vt 0.978677 0.335158
vt 0.997746 0.335158
vt 0.997746 0.350758
vt 0.784977 0.013903
vt 0.804046 0.013903
vt 0.804046 0.030008
vt 0.784977 0.030008
vt 0.978677 0.174093
vt 0.978677 0.159531
vt 0.997746 0.159531
vt 0.997746 0.174093
vt 0.165454 0.013903
vt 0.165454 0.030008
vt 0.150628 0.030008
vt 0.150628 0.013903
vt 0.189222 0.013903
vt 0.189222 0.030125
vt 0.170153 0.030125
vt 0.170153 0.013903
vt 0.804046 0.466481
vt 0.784977 0.466481
vt 0.165454 0.466481
vt 0.150628 0.466481
vt 0.189222 0.924683
vt 0.189222 0.940788
vt 0.170153 0.940788
vt 0.170153 0.924683
vt 0.189222 0.472657
vt 0.170153 0.472657
vt 0.804047 0.924565
vt 0.804047 0.940788
vt 0.784977 0.940788
vt 0.784977 0.924565
vt 0.165454 0.924565
vt 0.165454 0.940787
vt 0.150628 0.940787
vt 0.150628 0.924565
vt 0.804046 0.482034
vt 0.784977 0.482034
vt 0.165454 0.482034
vt 0.150628 0.482034
vt 0.189222 0.488210
vt 0.170153 0.488210
vt 0.978677 0.193800
vt 0.997746 0.193800
vt 0.978677 0.018173
vt 0.978677 0.002573
vt 0.997746 0.002573
vt 0.997746 0.018173
vt 0.016284 0.030008
vt 0.016284 0.013903
vt 0.016284 0.466481
vt 0.767022 0.443020
vt 0.767022 0.006547
vt 0.781848 0.006547
vt 0.781848 0.443020
vt 0.016284 0.940787
vt 0.016284 0.924565
vt 0.016284 0.482034
vt 0.613377 0.449169
vt 0.613377 0.006638
vt 0.628203 0.006638
vt 0.628203 0.449169
vt 0.632679 0.443020
vt 0.632678 0.006547
vt 0.479033 0.449169
vt 0.479033 0.006638
vt 0.978677 0.179238
vt 0.997746 0.179238
vt 0.002445 0.030008
vt 0.002445 0.013903
vt 0.002445 0.466481
vt 0.002445 0.940787
vt 0.002445 0.924565
vt 0.002445 0.482034
vt 0.324886 0.940787
vt 0.324886 0.924683
vt 0.338725 0.924683
vt 0.338725 0.940787
vt 0.866124 0.174093
vt 0.866124 0.159531
vt 0.301775 0.924683
vt 0.301775 0.940788
vt 0.324886 0.488210
vt 0.338725 0.488210
vt 0.609928 0.462354
vt 0.609928 0.898828
vt 0.497376 0.898828
vt 0.497376 0.462354
vt 0.301775 0.488210
vt 0.324886 0.030125
vt 0.324886 0.013903
vt 0.338725 0.013903
vt 0.338725 0.030125
vt 0.866124 0.193800
vt 0.866124 0.179238
vt 0.301775 0.013903
vt 0.301775 0.030125
vt 0.324886 0.472657
vt 0.338725 0.472657
vt 0.301775 0.472657
vt 0.763573 0.456205
vt 0.763573 0.898737
vt 0.651021 0.898737
vt 0.651021 0.456205
vt 0.847512 0.174093
vt 0.847512 0.159531
vt 0.320387 0.924683
vt 0.320387 0.940788
vt 0.478763 0.898828
vt 0.478763 0.462354
vt 0.320387 0.488210
vt 0.847512 0.193800
vt 0.847512 0.179238
vt 0.320387 0.013903
vt 0.320387 0.030125
vt 0.320387 0.472657
vt 0.632408 0.898737
vt 0.632408 0.456205
vt 0.956968 0.018173
vt 0.956968 0.002573
vt 0.825755 0.013903
vt 0.825755 0.030008
vt 0.978391 0.497044
vt 0.978391 0.512644
vt 0.956683 0.512644
vt 0.956683 0.497044
vt 0.978391 0.840687
vt 0.978391 0.856287
vt 0.956682 0.856287
vt 0.956682 0.840687
vt 0.825755 0.924565
vt 0.825755 0.940788
vt 0.956968 0.350758
vt 0.956968 0.335158
vt 0.978391 0.679020
vt 0.978391 0.694620
vt 0.956682 0.694620
vt 0.956682 0.679020
vt 0.825755 0.466481
vt 0.825755 0.482034
vt 0.978391 0.658711
vt 0.978391 0.674311
vt 0.956682 0.674311
vt 0.956682 0.658711
vt 0.865838 0.355685
vt 0.978391 0.355685
vt 0.978391 0.997646
vt 0.865838 0.997646
vt 0.978391 0.835978
vt 0.865838 0.835978
vt 0.865838 0.517353
vt 0.978391 0.517353
vt 0.847226 0.355685
vt 0.938070 0.497044
vt 0.473069 0.924683
vt 0.473069 0.940787
vt 0.938356 0.018173
vt 0.938356 0.335158
vt 0.473069 0.013903
vt 0.473069 0.030125
vt 0.847226 0.997646
vt 0.938070 0.856287
vt 0.847226 0.517353
vt 0.938070 0.658711
vt 0.473069 0.472657
vt 0.473069 0.488210
vt 0.847226 0.835978
vt 0.938070 0.694620
vt 0.844368 0.013903
vt 0.844368 0.030008
vt 0.938070 0.498603
vt 0.474551 0.924683
vt 0.474551 0.940787
vt 0.938356 0.016614
vt 0.844368 0.924565
vt 0.844368 0.940788
vt 0.938356 0.336717
vt 0.474551 0.013903
vt 0.474551 0.030125
vt 0.938070 0.854728
vt 0.844368 0.466481
vt 0.844368 0.482034
vt 0.938070 0.660270
vt 0.474551 0.472657
vt 0.474551 0.488210
vt 0.938070 0.693061
vn 1.0000 0.0000 0.0000
vn 0.0000 0.0000 1.0000
vn -1.0000 0.0000 0.0000
vn 0.0000 1.0000 0.0000
vn 0.0000 0.0000 -1.0000
vn 0.0000 -1.0000 0.0000
vn 0.0000 -0.8284 0.5602
vn 0.0000 -0.5827 0.8127
usemtl PolyMesh3D2_4
s off
f 6/1/1 25/2/1 26/3/1 2/4/1
f 1/5/2 5/6/2 9/7/2 10/8/2
f 7/9/3 37/10/3 38/11/3 3/12/3
f 1/13/4 10/14/4 29/15/4 28/16/4
f 8/17/5 13/18/5 14/19/5 4/20/5
f 9/7/2 17/21/2 18/22/2 10/8/2
f 10/14/4 18/23/4 31/24/4 29/15/4
f 12/25/5 7/26/5 3/27/5 11/28/5
f 13/18/5 21/29/5 22/30/5 14/19/5
f 15/31/2 6/32/2 2/33/2 16/34/2
f 16/35/4 2/36/4 26/37/4 33/38/4
f 17/21/2 23/39/2 24/40/2 18/22/2
f 18/23/4 24/41/4 35/42/4 31/24/4
f 20/43/5 12/25/5 11/28/5 19/44/5
f 21/29/5 20/43/5 19/44/5 22/30/5
f 23/39/2 15/31/2 16/34/2 24/40/2
f 24/41/4 16/35/4 33/38/4 35/42/4
f 25/2/1 41/45/1 44/46/1 26/3/1
f 27/47/3 5/48/3 1/49/3 28/50/3
f 28/16/4 29/15/4 45/51/4 38/52/4
f 29/15/4 31/24/4 46/53/4 45/51/4
f 30/54/6 32/55/6 17/56/6 9/57/6
f 33/38/4 26/37/4 44/58/4 47/59/4
f 31/24/4 35/42/4 48/60/4 46/53/4
f 35/42/4 33/38/4 47/59/4 48/60/4
f 36/61/6 34/62/6 15/63/6 23/64/6
f 37/10/3 27/47/3 28/50/3 38/11/3
f 39/65/6 40/66/6 32/55/6 30/54/6
f 43/67/6 42/68/6 34/62/6 36/61/6
f 41/45/1 8/69/1 4/70/1 44/46/1
f 38/52/4 45/51/4 11/71/4 3/72/4
f 45/51/4 46/53/4 19/73/4 11/71/4
f 47/59/4 44/58/4 4/74/4 14/75/4
f 46/53/4 48/60/4 22/76/4 19/73/4
f 48/60/4 47/59/4 14/75/4 22/76/4
f 52/77/6 51/78/6 50/79/6 49/80/6
f 37/10/3 7/9/3 61/81/3 62/82/3
f 7/26/5 12/25/5 64/83/5 61/84/5
f 51/78/6 54/85/6 53/86/6 50/79/6
f 40/87/2 39/88/2 63/89/2 65/90/2
f 12/25/5 20/43/5 66/91/5 64/83/5
f 58/92/6 57/93/6 56/94/6 55/95/6
f 8/69/1 41/45/1 68/96/1 69/97/1
f 13/18/5 8/17/5 69/98/5 70/99/5
f 54/85/6 60/100/6 59/101/6 53/86/6
f 20/43/5 21/29/5 72/102/5 66/91/5
f 60/100/6 58/92/6 55/95/6 59/101/6
f 42/103/2 43/104/2 71/105/2 67/106/2
f 21/29/5 13/18/5 70/99/5 72/102/5
f 62/82/3 61/81/3 52/107/3 49/108/3
f 61/84/5 64/83/5 51/109/5 52/110/5
f 65/90/2 63/89/2 50/111/2 53/112/2
f 64/83/5 66/91/5 54/113/5 51/109/5
f 69/97/1 68/96/1 56/114/1 57/115/1
f 70/99/5 69/98/5 57/116/5 58/117/5
f 66/91/5 72/102/5 60/118/5 54/113/5
f 67/106/2 71/105/2 59/119/2 55/120/2
f 72/102/5 70/99/5 58/117/5 60/118/5
f 5/48/3 27/47/3 76/121/3 73/122/3
f 9/7/2 5/6/2 73/123/2 74/124/2
f 30/125/1 9/126/1 74/127/1 75/128/1
f 15/129/3 34/130/3 80/131/3 77/132/3
f 6/32/2 15/31/2 77/133/2 78/134/2
f 25/2/1 6/1/1 78/135/1 79/136/1
f 17/137/3 32/138/3 84/139/3 81/140/3
f 23/39/2 17/21/2 81/141/2 82/142/2
f 36/143/1 23/144/1 82/145/1 83/146/1
f 76/121/3 27/47/3 37/10/3 62/82/3
f 30/125/1 75/128/1 63/147/1 39/148/1
f 80/131/3 34/130/3 42/149/3 67/150/3
f 25/2/1 79/136/1 68/96/1 41/45/1
f 84/139/3 32/138/3 40/151/3 65/152/3
f 36/143/1 83/146/1 71/153/1 43/154/1
f 50/155/1 63/147/1 75/128/1 85/156/1
f 49/80/7 50/79/7 85/157/7 86/158/7
f 62/82/3 49/108/3 86/159/3 76/121/3
f 56/114/1 68/96/1 79/136/1 87/160/1
f 55/95/7 56/94/7 87/161/7 88/162/7
f 67/150/3 55/163/3 88/164/3 80/131/3
f 59/165/1 71/153/1 83/146/1 89/166/1
f 53/86/7 59/101/7 89/167/7 90/168/7
f 65/152/3 53/169/3 90/170/3 84/139/3
f 74/124/8 73/123/8 92/171/8 91/172/8
f 85/156/1 75/128/1 74/127/1 91/173/1
f 86/158/6 85/157/6 91/174/6 92/175/6
f 76/121/3 86/159/3 92/176/3 73/122/3
f 78/134/8 77/133/8 94/177/8 93/178/8
f 87/160/1 79/136/1 78/135/1 93/179/1
f 88/162/6 87/161/6 93/180/6 94/181/6
f 80/131/3 88/164/3 94/182/3 77/132/3
f 82/142/8 81/141/8 96/183/8 95/184/8
f 89/166/1 83/146/1 82/145/1 95/185/1
f 90/168/6 89/167/6 95/186/6 96/187/6
f 84/139/3 90/170/3 96/188/3 81/140/3
